<?xml version="1.0" encoding="utf-8"?>
<!-- Generator: Adobe Illustrator 27.8.1, SVG Export Plug-In . SVG Version: 6.00 Build 0)  -->
<svg version="1.1" xmlns="http://www.w3.org/2000/svg" xmlns:xlink="http://www.w3.org/1999/xlink" x="0px" y="0px"
	 viewBox="0 0 1920 1080" style="enable-background:new 0 0 1920 1080;" xml:space="preserve">
<style type="text/css">
	.st0{display:none;}
	.st1{display:inline;fill:#1D1D1B;}
	.st2{display:inline;}
	.st3{fill:#1D1D1B;}
	.st4{fill:#F4F4F4;}
	.st5{clip-path:url(#SVGID_00000097500156533509175650000018334074467013204138_);}
	.st6{clip-path:url(#SVGID_00000099637026058347550340000001367132117125333915_);}
	.st7{fill:#07F7B8;}
	.st8{fill:#FFFFFF;}
	.st9{clip-path:url(#SVGID_00000098913964799752103560000007079408324918952606_);}
	.st10{clip-path:url(#SVGID_00000160191581539788039870000013043130202803456658_);}
	.st11{clip-path:url(#SVGID_00000164476323721569733860000013068359469867456165_);}
	.st12{clip-path:url(#SVGID_00000088108294457169135560000005871623644311316885_);}
	.st13{clip-path:url(#SVGID_00000137106743112023571440000012483068797653547443_);}
	.st14{clip-path:url(#SVGID_00000050622285697510383090000011602869983389618350_);}
	.st15{clip-path:url(#SVGID_00000000917855872670014590000012093326908737993863_);}
	.st16{clip-path:url(#SVGID_00000168815165503068691210000015363540298586179236_);}
	.st17{clip-path:url(#SVGID_00000169530240209772592780000005154544207244813240_);}
	.st18{clip-path:url(#SVGID_00000098916777043313612650000008138397361926087078_);}
	.st19{clip-path:url(#SVGID_00000038379967311566192370000014783196983112653703_);}
	.st20{clip-path:url(#SVGID_00000129891428388261190420000001540526967600274563_);}
	.st21{clip-path:url(#SVGID_00000008130627936508795190000009334215850008329914_);}
	.st22{clip-path:url(#SVGID_00000060717171907372001820000014581412797371617943_);}
	.st23{clip-path:url(#SVGID_00000170267703165848204980000002101915019030462366_);}
	.st24{clip-path:url(#SVGID_00000134217640614909099400000018258339728947083689_);}
</style>
<g id="Background" class="st0">
</g>
<g id="Original" class="st0">
</g>
<g id="Sitio_web">
	<g>
		<g>
			<path class="st3" d="M493.2,989.7c2.8-2.6,4.4-6.3,4.4-10.4c0-8.2-6.6-14.8-14.8-14.8h-21.4v52.7h23c8.4,0,15.3-6.9,15.3-15.3
				C499.7,997,497.2,992.5,493.2,989.7z M484.4,1009.7h-15.2v-15.5h15.2c4.2,0,7.5,3.5,7.5,7.8S488.6,1009.7,484.4,1009.7z
				 M482.8,986.6h-13.7v-14.5h13.7c3.9,0,7.1,3.3,7.1,7.3C489.9,983.4,486.7,986.6,482.8,986.6z"/>
			<rect x="553.8" y="964.5" class="st3" width="7.8" height="52.7"/>
			<path class="st3" d="M643.1,963.8c-15.2,0-27.1,11.9-27.1,27.1c0,15.2,11.9,27.1,27.1,27.1s27.1-11.9,27.1-27.1
				C670.2,975.7,658.3,963.8,643.1,963.8z M643.1,1010.4c-10.9,0-19.3-8.6-19.3-19.5s8.5-19.5,19.3-19.5s19.3,8.6,19.3,19.5
				S654,1010.4,643.1,1010.4z"/>
			<polygon class="st3" points="748.6,991.4 732.4,964.5 724.6,964.5 724.6,1017.2 732.4,1017.2 732.4,979.4 747.2,1003.9 
				750.1,1003.9 764.9,979.4 764.9,1017.2 772.7,1017.2 772.7,964.5 764.8,964.5 			"/>
			<path class="st3" d="M844.4,964.5l-20.5,52.7h8.3l4.7-12.4h21.6l4.7,12.4h8.3l-20.4-52.7H844.4z M839.9,997.3l7.9-20.5l7.9,20.5
				H839.9z"/>
			<polygon class="st3" points="914.8,972.1 930.1,972.1 930.1,1017.2 937.9,1017.2 937.9,972.1 953.2,972.1 953.2,964.5 
				914.8,964.5 			"/>
			<polygon class="st3" points="1013.7,994.5 1035.9,994.5 1035.9,986.9 1013.7,986.9 1013.7,972.1 1037.6,972.1 1037.6,964.5 
				1005.9,964.5 1005.9,1017.2 1038,1017.2 1038,1009.7 1013.7,1009.7 			"/>
			<path class="st3" d="M1129.7,981c0-9.1-7.4-16.4-16.4-16.4h-21.2v52.7h7.8v-19.9h12.1l11.7,19.9h9l-12.6-21.4
				C1125.9,993.2,1129.7,987.4,1129.7,981z M1099.9,972.1h13.4c4.8,0,8.7,4,8.7,8.9c0,4.8-3.9,8.8-8.7,8.8h-13.4V972.1z"/>
			<rect x="1183.9" y="964.5" class="st3" width="7.8" height="52.7"/>
			<path class="st3" d="M1263.3,964.5l-20.5,52.7h8.3l4.7-12.4h21.6l4.7,12.4h8.3l-20.4-52.7H1263.3z M1258.8,997.3l7.9-20.5
				l7.9,20.5H1258.8z"/>
			<polygon class="st3" points="1349.4,964.5 1341.7,964.5 1341.7,1017.2 1372.4,1017.2 1372.4,1009.7 1349.4,1009.7 			"/>
			<path class="st3" d="M1441.1,986.7c-7.4-2.5-10.5-3.9-10.5-8c0-4.5,3.5-7.3,8.9-7.3c6.3,0,9.3,3.9,10.6,7.1l0.9,2.1l6.7-3.7
				l-0.7-1.7c-3-7.2-9.6-11.5-17.5-11.5c-9.7,0-16.8,6.3-16.8,15.1c0,9.9,8.4,12.6,16.6,15.3l0.2,0.1c7.6,2.4,11.1,4.3,11.1,8.5
				c0,4.9-3.7,7.7-10.2,7.7c-6.6,0-11.1-3-12.6-8.3l-0.7-2.5l-6.9,4l0.5,1.6c2.6,7.9,10.1,12.9,19.7,12.9c10.8,0,18-6.2,18-15.4
				C1458.6,992.5,1449.3,989.4,1441.1,986.7z"/>
		</g>
		<g>
			<path class="st3" d="M211.6,592.9h-68.7c-4.6,0-8.4-3.8-8.4-8.4v-88.3c0-4.6,3.8-8.4,8.4-8.4h263c4.6,0,8.4,3.8,8.4,8.4v88.3
				c0,4.6-3.8,8.4-8.4,8.4h-68.8l0,287c0,4.6-3.8,8.4-8.4,8.4H220c-4.6,0-8.4-3.8-8.4-8.4L211.6,592.9z"/>
			<path class="st3" d="M450.1,487.8h108.7c4.6,0,8.4,3.8,8.4,8.4l0,127.9H644l0-127.9c0-4.6,3.8-8.4,8.4-8.4h108.7
				c4.6,0,8.4,3.8,8.4,8.4v383.6c0,4.6-3.8,8.4-8.4,8.4H652.4c-4.6,0-8.4-3.8-8.4-8.4l0-139.9h-76.8l0,139.9c0,4.6-3.8,8.4-8.4,8.4
				H450.1c-4.6,0-8.4-3.8-8.4-8.4V496.2C441.7,491.6,445.4,487.8,450.1,487.8z"/>
			<path class="st3" d="M936.2,487.8h84.5c3.5,0,6.6,2.2,7.8,5.4L1174,876.9c2.1,5.5-2,11.4-7.8,11.4h-108c-3.5,0-6.7-2.2-7.9-5.5
				l-11.2-30.5H917.8l-11.2,30.5c-1.2,3.3-4.4,5.5-7.9,5.5h-108c-5.9,0-9.9-5.9-7.8-11.4l145.5-383.6
				C929.6,490,932.7,487.8,936.2,487.8z"/>
			<path class="st3" d="M1195.7,487.8h92.3c2.7,0,5.2,1.3,6.8,3.5l85.6,119.6c7,9.7,22.3,4.8,22.3-7.2V496.2c0-4.6,3.8-8.4,8.4-8.4
				h108.7c4.6,0,8.4,3.8,8.4,8.4v383.6c0,4.6-3.8,8.4-8.4,8.4H1427c-2.7,0-5.3-1.3-6.8-3.5l-90.5-126.6c-5.2-7.3-16.8-3.6-16.8,5.4
				v116.4c0,4.6-3.8,8.4-8.4,8.4h-108.7c-4.6,0-8.4-3.8-8.4-8.4V496.2C1187.3,491.6,1191.1,487.8,1195.7,487.8z"/>
		</g>
		<g>
			<path class="st3" d="M142.9,71h86.3c2.8,0,5.4,1.4,6.9,3.7l95.2,140.5l95.2-140.5c1.6-2.3,4.2-3.7,6.9-3.7h86.3
				c4.6,0,8.4,3.8,8.4,8.4v358.9c0,4.6-3.8,8.4-8.4,8.4H416.6c-4.6,0-8.4-3.8-8.4-8.4V311.5l-70,102.5c-3.3,4.9-10.5,4.9-13.9,0
				l-70-102.5v126.8c0,4.6-3.8,8.4-8.4,8.4H142.9c-4.6,0-8.4-3.8-8.4-8.4V79.4C134.5,74.8,138.2,71,142.9,71z"/>
			<path class="st3" d="M555.9,259.1c0-27,5.2-52.6,15.5-76.6s24.4-45,42.2-62.8c17.8-17.8,38.8-31.9,62.8-42.2
				C700.5,67.2,726,62,753.1,62c27,0,52.6,5.2,76.6,15.5c24,10.3,45,24.4,62.8,42.2c17.8,17.8,31.9,38.8,42.2,62.8
				s15.5,49.6,15.5,76.6c0,27-5.2,52.6-15.5,76.6c-10.3,24-24.4,45-42.2,62.8c-17.8,17.8-38.8,31.9-62.8,42.2
				c-24,10.3-49.6,15.5-76.6,15.5c-27,0-52.6-5.2-76.6-15.5c-24-10.3-45-24.4-62.8-42.2c-17.8-17.8-31.9-38.8-42.2-62.8
				C561.1,311.7,555.9,286.2,555.9,259.1z"/>
			<path class="st3" d="M977.9,79.4c0-4.6,3.8-8.4,8.4-8.4h121.2c24,0,46.3,3.2,66.7,9.6c20.5,6.4,38.2,15.8,53.2,28.2
				c15,12.4,26.8,27.7,35.2,45.9s12.7,39.1,12.7,62.8c0,18.8-2.6,34.7-7.9,47.9c-5.3,13.1-11.1,24-17.4,32.7
				c-6,7.8-12.6,14.6-19.8,20.5c-3.2,2.6-4,7.1-2,10.6l59.7,105c3.2,5.6-0.9,12.5-7.3,12.5H1159c-3,0-5.7-1.6-7.2-4.1l-53.9-91.1
				v86.8c0,4.6-3.8,8.4-8.4,8.4H986.3c-4.6,0-8.4-3.8-8.4-8.4V79.4z"/>
			<path class="st3" d="M1311.4,71h208.5c4.6,0,8.4,3.8,8.4,8.4v81.8c0,4.6-3.8,8.4-8.4,8.4H1423v41.7h91.3c4.6,0,8.4,3.8,8.4,8.4
				v76.7c0,4.6-3.8,8.4-8.4,8.4H1423v43.4h96.9c4.6,0,8.4,3.8,8.4,8.4v81.8c0,4.6-3.8,8.4-8.4,8.4h-208.5c-4.6,0-8.4-3.8-8.4-8.4
				V79.4C1303,74.8,1306.8,71,1311.4,71z"/>
		</g>
		<g>
			<g>
				<path class="st3" d="M1574.3,530.8c-2.7,0-4.8-2.2-4.8-4.8v-69.7c0-13.8,1.8-26.6,5.5-38.4c3.7-11.8,9.1-22,16.2-30.6
					c7.1-8.6,15.9-15.4,26.4-20.2c10.5-4.9,22.5-7.3,36.1-7.3c10.8,0,20,1.5,27.5,4.5c7.6,3,13.8,6.4,18.8,10
					c4.5,3.5,8.4,7.2,11.8,11.4c1.5,1.8,4.1,2.3,6.1,1.1l60.4-34.3c3.2-1.8,7.2,0.5,7.2,4.2v69.9c0,1.7-0.9,3.3-2.4,4.2l-52.4,31
					h49.9c2.7,0,4.8,2.2,4.8,4.8V526c0,2.7-2.2,4.8-4.8,4.8H1574.3z"/>
				<path class="st3" d="M1569.5,340.2V220.2c0-2.7,2.2-4.8,4.8-4.8h47c2.7,0,4.8,2.2,4.8,4.8V276h24v-52.5c0-2.7,2.2-4.8,4.8-4.8
					h44.1c2.7,0,4.8,2.2,4.8,4.8V276h24.9v-55.8c0-2.7,2.2-4.8,4.8-4.8h47c2.7,0,4.8,2.2,4.8,4.8v119.9c0,2.7-2.2,4.8-4.8,4.8
					h-206.4C1571.6,345,1569.5,342.8,1569.5,340.2z"/>
				<path class="st3" d="M1569.5,195.8V75.8c0-2.7,2.2-4.8,4.8-4.8h47c2.7,0,4.8,2.2,4.8,4.8v55.8h24V79.1c0-2.7,2.2-4.8,4.8-4.8
					h44.1c2.7,0,4.8,2.2,4.8,4.8v52.5h24.9V75.8c0-2.7,2.2-4.8,4.8-4.8h47c2.7,0,4.8,2.2,4.8,4.8v119.9c0,2.7-2.2,4.8-4.8,4.8
					h-206.4C1571.6,200.6,1569.5,198.4,1569.5,195.8z"/>
				<path class="st3" d="M1626.1,846.6v37.1c0,2.5-2,4.5-4.5,4.5H1574c-2.5,0-4.5-2-4.5-4.5V741.8c0-2.5,2-4.5,4.5-4.5h47.6
					c2.5,0,4.5,2,4.5,4.5v37.1l154.9,0c2.5,0,4.5,2,4.5,4.5v58.6c0,2.5-2,4.5-4.5,4.5L1626.1,846.6z"/>
				<path class="st3" d="M1569.5,718v-58.6c0-2.5,2-4.5,4.5-4.5l69,0v-41.5l-69,0c-2.5,0-4.5-2-4.5-4.5v-58.6c0-2.5,2-4.5,4.5-4.5
					h207c2.5,0,4.5,2,4.5,4.5v58.6c0,2.5-2,4.5-4.5,4.5l-75.5,0v41.5l75.5,0c2.5,0,4.5,2,4.5,4.5V718c0,2.5-2,4.5-4.5,4.5h-207
					C1571.5,722.5,1569.5,720.5,1569.5,718z"/>
			</g>
		</g>
	</g>
</g>
<g id="Header__x2F__Firma">
</g>
</svg>
