<?xml version="1.0" encoding="utf-8"?>
<!-- Generator: Adobe Illustrator 27.8.1, SVG Export Plug-In . SVG Version: 6.00 Build 0)  -->
<svg version="1.1" xmlns="http://www.w3.org/2000/svg" xmlns:xlink="http://www.w3.org/1999/xlink" x="0px" y="0px"
	 viewBox="0 0 1920 1080" style="enable-background:new 0 0 1920 1080;" xml:space="preserve">
<style type="text/css">
	.st0{display:none;}
	.st1{display:inline;fill:#1D1D1B;}
	.st2{display:inline;}
	.st3{fill:#1D1D1B;}
	.st4{fill:#F4F4F4;}
	.st5{clip-path:url(#SVGID_00000181050923940480087180000010964725932977007551_);}
	.st6{clip-path:url(#SVGID_00000142178070515087809290000010857640116611655598_);}
	.st7{fill:#07F7B8;}
	.st8{fill:#FFFFFF;}
	.st9{clip-path:url(#SVGID_00000007411516546085314490000000660750844554920084_);}
	.st10{clip-path:url(#SVGID_00000134235226208412982620000009395109798043181990_);}
	.st11{clip-path:url(#SVGID_00000150087308674280677560000015824576926165320625_);}
	.st12{clip-path:url(#SVGID_00000026870180375421649950000008635860887763078325_);}
	.st13{clip-path:url(#SVGID_00000070096358267041370060000003644586808697691032_);}
	.st14{clip-path:url(#SVGID_00000097493822436633177360000014958406207778475138_);}
	.st15{clip-path:url(#SVGID_00000142864560193699816470000012562751224415292582_);}
	.st16{clip-path:url(#SVGID_00000023278889267000639480000003537826285098914455_);}
	.st17{clip-path:url(#SVGID_00000155837847029133230090000010121699621691893908_);}
	.st18{clip-path:url(#SVGID_00000048490397932202799000000000656931254711064248_);}
	.st19{clip-path:url(#SVGID_00000155108355881841981150000012805169818726401460_);}
	.st20{clip-path:url(#SVGID_00000158718715474336674470000012418026951917525935_);}
	.st21{clip-path:url(#SVGID_00000125571714271042967510000007446343964694261649_);}
	.st22{clip-path:url(#SVGID_00000110446695791226961980000013818759082537307556_);}
	.st23{clip-path:url(#SVGID_00000054988356790894048780000011115392542071422393_);}
	.st24{clip-path:url(#SVGID_00000170974463215337710030000011471948174467117215_);}
</style>
<g id="Background" class="st0">
	<rect y="0" class="st1" width="1920" height="1080"/>
</g>
<g id="Original" class="st0">
</g>
<g id="Sitio_web">
	<g>
		<path class="st8" d="M1693.2,70H1274c-24.5,0-45.6,15.1-54.4,36.5c-15.7-10.9-33.5-19.5-53-25.6c-23.1-7.2-48.3-10.9-74.9-10.9
			H983.5c-29,0-53.2,21.2-57.9,48.9c-18.2-16-38.9-29.1-61.8-38.9c-27.8-11.9-57.6-18-88.7-18c-31,0-60.9,6.1-88.7,18
			c-22.9,9.8-43.6,22.9-61.8,38.9C619.9,91.2,595.8,70,566.7,70h-77.1c-19.5,0-37.7,9.6-48.7,25.8l-42.6,62.9l-42.6-62.9
			C344.8,79.7,326.6,70,307,70H230c-32.4,0-58.8,26.4-58.8,58.8v760.9c0,70.8,57.4,128.2,128.2,128.2h1321.2
			c70.8,0,128.2-57.4,128.2-128.2V125.7C1748.8,95,1723.9,70,1693.2,70z"/>
		<g>
			<path class="st3" d="M543,942.1c2.5-2.3,3.9-5.6,3.9-9.3c0-7.3-5.9-13.2-13.2-13.2h-19.1v47.1h20.6c7.5,0,13.7-6.1,13.7-13.7
				C548.8,948.6,546.6,944.6,543,942.1z M535.1,960h-13.6v-13.8h13.6c3.7,0,6.7,3.1,6.7,6.9C541.8,956.9,538.8,960,535.1,960z
				 M533.7,939.4h-12.2v-13h12.2c3.5,0,6.3,2.9,6.3,6.5C540,936.5,537.1,939.4,533.7,939.4z"/>
			<rect x="597.1" y="919.6" class="st3" width="6.9" height="47.1"/>
			<path class="st3" d="M676.9,918.9c-13.6,0-24.2,10.6-24.2,24.2c0,13.6,10.6,24.2,24.2,24.2s24.2-10.6,24.2-24.2
				C701.1,929.6,690.5,918.9,676.9,918.9z M676.9,960.6c-9.7,0-17.3-7.6-17.3-17.4s7.6-17.4,17.3-17.4c9.7,0,17.3,7.6,17.3,17.4
				S686.6,960.6,676.9,960.6z"/>
			<polygon class="st3" points="771.1,943.6 756.7,919.6 749.7,919.6 749.7,966.7 756.6,966.7 756.6,932.9 769.9,954.8 772.5,954.8 
				785.7,932.9 785.7,966.7 792.6,966.7 792.6,919.6 785.6,919.6 			"/>
			<path class="st3" d="M856.7,919.6l-18.3,47.1h7.4l4.2-11h19.3l4.2,11h7.4l-18.2-47.1H856.7z M852.7,948.9l7-18.3l7,18.3H852.7z"
				/>
			<polygon class="st3" points="919.6,926.4 933.3,926.4 933.3,966.7 940.3,966.7 940.3,926.4 953.9,926.4 953.9,919.6 919.6,919.6 
							"/>
			<polygon class="st3" points="1008,946.4 1027.8,946.4 1027.8,939.6 1008,939.6 1008,926.4 1029.4,926.4 1029.4,919.6 1001,919.6 
				1001,966.7 1029.7,966.7 1029.7,960 1008,960 			"/>
			<path class="st3" d="M1111.7,934.3c0-8.1-6.6-14.7-14.7-14.7H1078v47.1h6.9v-17.8h10.8l10.4,17.8h8l-11.3-19.1
				C1108.2,945.3,1111.7,940.1,1111.7,934.3z M1085,926.4h12c4.3,0,7.7,3.6,7.7,7.9c0,4.3-3.5,7.9-7.7,7.9h-12V926.4z"/>
			<rect x="1160" y="919.6" class="st3" width="6.9" height="47.1"/>
			<path class="st3" d="M1231,919.6l-18.3,47.1h7.4l4.2-11h19.3l4.2,11h7.4l-18.2-47.1H1231z M1227,948.9l7-18.3l7,18.3H1227z"/>
			<polygon class="st3" points="1307.9,919.6 1301,919.6 1301,966.7 1328.4,966.7 1328.4,960 1307.9,960 			"/>
			<path class="st3" d="M1389.8,939.5c-6.6-2.2-9.4-3.5-9.4-7.1c0-4,3.1-6.6,8-6.6c5.7,0,8.3,3.5,9.5,6.4l0.8,1.9l6-3.3l-0.6-1.5
				c-2.7-6.4-8.5-10.2-15.6-10.2c-8.7,0-15,5.7-15,13.5c0,8.8,7.5,11.3,14.8,13.6l0.2,0.1c6.7,2.1,10,3.8,10,7.6
				c0,4.4-3.3,6.9-9.1,6.9c-5.9,0-9.9-2.6-11.3-7.4l-0.6-2.3l-6.2,3.6l0.5,1.4c2.3,7.1,9,11.5,17.6,11.5c9.6,0,16.1-5.5,16.1-13.7
				C1405.5,944.6,1397.2,941.9,1389.8,939.5z"/>
		</g>
		<g>
			<path class="st3" d="M291.4,587.6H230c-4.1,0-7.5-3.4-7.5-7.5v-78.9c0-4.1,3.4-7.5,7.5-7.5h235c4.1,0,7.5,3.4,7.5,7.5v78.9
				c0,4.1-3.4,7.5-7.5,7.5h-61.4l0,256.4c0,4.1-3.4,7.5-7.5,7.5h-97.1c-4.1,0-7.5-3.4-7.5-7.5L291.4,587.6z"/>
			<path class="st3" d="M504.4,493.7h97.1c4.1,0,7.5,3.4,7.5,7.5l0,114.3h68.6l0-114.3c0-4.1,3.4-7.5,7.5-7.5h97.1
				c4.1,0,7.5,3.4,7.5,7.5V844c0,4.1-3.4,7.5-7.5,7.5h-97.1c-4.1,0-7.5-3.4-7.5-7.5l0-125H609l0,125c0,4.1-3.4,7.5-7.5,7.5h-97.1
				c-4.1,0-7.5-3.4-7.5-7.5V501.2C496.9,497.1,500.3,493.7,504.4,493.7z"/>
			<path class="st3" d="M938.7,493.7h75.5c3.1,0,5.9,1.9,7,4.8l130,342.8c1.9,4.9-1.8,10.2-7,10.2h-96.5c-3.1,0-6-2-7-4.9l-10-27.3
				H922.3l-10,27.3c-1.1,3-3.9,4.9-7,4.9h-96.5c-5.2,0-8.9-5.3-7-10.2l130-342.8C932.8,495.6,935.6,493.7,938.7,493.7z"/>
			<path class="st3" d="M1170.6,493.7h82.5c2.4,0,4.7,1.2,6.1,3.1l76.5,106.8c6.2,8.7,20,4.3,20-6.4v-96.1c0-4.1,3.4-7.5,7.5-7.5
				h97.1c4.1,0,7.5,3.4,7.5,7.5V844c0,4.1-3.4,7.5-7.5,7.5h-83c-2.4,0-4.7-1.2-6.1-3.1l-80.9-113.1c-4.7-6.6-15-3.2-15,4.8V844
				c0,4.1-3.4,7.5-7.5,7.5h-97.1c-4.1,0-7.5-3.4-7.5-7.5V501.2C1163.1,497.1,1166.5,493.7,1170.6,493.7z"/>
		</g>
		<g>
			<path class="st3" d="M230,121.3H307c2.5,0,4.8,1.2,6.2,3.3l85.1,125.5l85.1-125.5c1.4-2.1,3.7-3.3,6.2-3.3h77.1
				c4.1,0,7.5,3.4,7.5,7.5v320.6c0,4.1-3.4,7.5-7.5,7.5h-92.2c-4.1,0-7.5-3.4-7.5-7.5V336.2l-62.5,91.6c-3,4.4-9.4,4.4-12.4,0
				l-62.5-91.6v113.3c0,4.1-3.4,7.5-7.5,7.5H230c-4.1,0-7.5-3.4-7.5-7.5V128.8C222.5,124.7,225.8,121.3,230,121.3z"/>
			<path class="st3" d="M599,289.4c0-24.1,4.6-47,13.8-68.4s21.8-40.2,37.7-56.1c15.9-15.9,34.6-28.5,56.1-37.7s44.3-13.8,68.4-13.8
				c24.1,0,47,4.6,68.4,13.8c21.5,9.2,40.2,21.8,56.1,37.7c15.9,15.9,28.5,34.6,37.7,56.1s13.8,44.3,13.8,68.4
				c0,24.2-4.6,47-13.8,68.4S915.6,398,899.7,414c-15.9,15.9-34.6,28.5-56.1,37.7c-21.5,9.2-44.3,13.8-68.4,13.8
				c-24.2,0-47-4.6-68.4-13.8s-40.2-21.8-56.1-37.7c-15.9-15.9-28.5-34.6-37.7-56.1S599,313.6,599,289.4z"/>
			<path class="st3" d="M976,128.8c0-4.1,3.4-7.5,7.5-7.5h108.2c21.5,0,41.3,2.9,59.6,8.5c18.3,5.7,34.1,14.1,47.6,25.2
				c13.4,11.1,23.9,24.7,31.5,41c7.5,16.3,11.3,35,11.3,56.1c0,16.8-2.3,31-7,42.8c-4.7,11.7-9.9,21.5-15.6,29.2
				c-5.4,7-11.2,13.1-17.7,18.3c-2.8,2.3-3.6,6.3-1.8,9.5l53.3,93.8c2.8,5-0.8,11.2-6.5,11.2h-108.6c-2.7,0-5.1-1.4-6.5-3.7
				l-48.2-81.4v77.5c0,4.1-3.4,7.5-7.5,7.5h-92.2c-4.1,0-7.5-3.4-7.5-7.5V128.8z"/>
			<path class="st3" d="M1274,121.3h186.3c4.1,0,7.5,3.4,7.5,7.5v73.1c0,4.1-3.4,7.5-7.5,7.5h-86.6v37.2h81.6c4.1,0,7.5,3.4,7.5,7.5
				v68.5c0,4.1-3.4,7.5-7.5,7.5h-81.6v38.8h86.6c4.1,0,7.5,3.4,7.5,7.5v73.1c0,4.1-3.4,7.5-7.5,7.5H1274c-4.1,0-7.5-3.4-7.5-7.5
				V128.8C1266.5,124.7,1269.8,121.3,1274,121.3z"/>
		</g>
		<g>
			<path class="st3" d="M1508.8,532.1c-2.4,0-4.3-1.9-4.3-4.3v-62.3c0-12.3,1.6-23.8,4.9-34.3c3.3-10.5,8.1-19.6,14.5-27.4
				c6.4-7.7,14.2-13.7,23.6-18.1s20.1-6.5,32.3-6.5c9.7,0,17.9,1.4,24.6,4.1c6.8,2.7,12.3,5.7,16.8,9c4,3.1,7.5,6.5,10.5,10.2
				c1.3,1.6,3.6,2.1,5.4,1l54-30.7c2.9-1.6,6.4,0.4,6.4,3.8v62.5c0,1.5-0.8,2.9-2.1,3.7l-46.8,27.7h44.6c2.4,0,4.3,1.9,4.3,4.3v53
				c0,2.4-1.9,4.3-4.3,4.3H1508.8z"/>
			<path class="st3" d="M1504.5,361.8V254.7c0-2.4,1.9-4.3,4.3-4.3h42c2.4,0,4.3,1.9,4.3,4.3v49.8h21.4v-46.9c0-2.4,1.9-4.3,4.3-4.3
				h39.4c2.4,0,4.3,1.9,4.3,4.3v46.9h22.3v-49.8c0-2.4,1.9-4.3,4.3-4.3h42c2.4,0,4.3,1.9,4.3,4.3v107.1c0,2.4-1.9,4.3-4.3,4.3
				h-184.4C1506.4,366.1,1504.5,364.2,1504.5,361.8z"/>
			<path class="st3" d="M1504.5,232.8V125.7c0-2.4,1.9-4.3,4.3-4.3h42c2.4,0,4.3,1.9,4.3,4.3v49.8h21.4v-46.9c0-2.4,1.9-4.3,4.3-4.3
				h39.4c2.4,0,4.3,1.9,4.3,4.3v46.9h22.3v-49.8c0-2.4,1.9-4.3,4.3-4.3h42c2.4,0,4.3,1.9,4.3,4.3v107.1c0,2.4-1.9,4.3-4.3,4.3
				h-184.4C1506.4,237.1,1504.5,235.2,1504.5,232.8z"/>
			<path class="st3" d="M1555.1,814.3v33.1c0,2.2-1.8,4-4,4h-42.6c-2.2,0-4-1.8-4-4V720.6c0-2.2,1.8-4,4-4h42.6c2.2,0,4,1.8,4,4
				v33.1l138.3,0c2.2,0,4,1.8,4,4v52.4c0,2.2-1.8,4-4,4L1555.1,814.3z"/>
			<path class="st3" d="M1504.5,699.3v-52.4c0-2.2,1.8-4,4-4l61.6,0v-37l-61.6,0c-2.2,0-4-1.8-4-4v-52.4c0-2.2,1.8-4,4-4h184.9
				c2.2,0,4,1.8,4,4v52.4c0,2.2-1.8,4-4,4l-67.4,0v37l67.4,0c2.2,0,4,1.8,4,4v52.4c0,2.2-1.8,4-4,4h-184.9
				C1506.3,703.4,1504.5,701.6,1504.5,699.3z"/>
		</g>
	</g>
</g>
<g id="Header__x2F__Firma">
</g>
</svg>
