<?xml version="1.0" encoding="utf-8"?>
<!-- Generator: Adobe Illustrator 27.8.1, SVG Export Plug-In . SVG Version: 6.00 Build 0)  -->
<svg version="1.1" xmlns="http://www.w3.org/2000/svg" xmlns:xlink="http://www.w3.org/1999/xlink" x="0px" y="0px"
	 viewBox="0 0 1080 1080" style="enable-background:new 0 0 1080 1080;" xml:space="preserve">
<style type="text/css">
	.st0{display:none;}
	.st1{display:inline;fill:#1D1D1B;}
	.st2{display:inline;}
	.st3{fill:#1D1D1B;}
	.st4{fill:#F4F4F4;}
	.st5{clip-path:url(#SVGID_00000182502255732589684770000012477207157341387696_);}
	.st6{clip-path:url(#SVGID_00000053504091317760019560000004801568102032149918_);}
	.st7{fill:#07F7B8;}
	.st8{fill:#FFFFFF;}
	.st9{clip-path:url(#SVGID_00000183219141004595426460000011003838764297937798_);}
	.st10{clip-path:url(#SVGID_00000080205926735044281300000006345127710876256184_);}
	.st11{clip-path:url(#SVGID_00000065054523466594546670000015858865951952841363_);}
	.st12{clip-path:url(#SVGID_00000155114262110267989880000004419412351988125082_);}
	.st13{clip-path:url(#SVGID_00000151513481186607505930000002834890782470418580_);}
	.st14{clip-path:url(#SVGID_00000106832606263469699530000002399362845273092266_);}
	.st15{clip-path:url(#SVGID_00000114765934766864376120000006476413048906995386_);}
	.st16{clip-path:url(#SVGID_00000164494402301635432100000001896846135765295537_);}
	.st17{clip-path:url(#SVGID_00000047047782174088024680000007103115622094895548_);}
	.st18{clip-path:url(#SVGID_00000098930455829386928840000007378776205814945464_);}
	.st19{clip-path:url(#SVGID_00000012471468954850654720000008789738417856299425_);}
	.st20{clip-path:url(#SVGID_00000148661114058209662870000005322771109768809635_);}
	.st21{clip-path:url(#SVGID_00000141426000693817888960000011884661285003229593_);}
	.st22{clip-path:url(#SVGID_00000066477808408931637510000005500709376308898448_);}
	.st23{clip-path:url(#SVGID_00000161625849394230617940000014059542565470571696_);}
	.st24{clip-path:url(#SVGID_00000168085456601601862040000014899318425598229688_);}
</style>
<g id="Background" class="st0">
</g>
<g id="Original" class="st0">
</g>
<g id="Sitio_web">
</g>
<g id="Header__x2F__Firma">
	<g>
		<path class="st3" d="M300.6,770.8c1.4-1.3,2.3-3.2,2.3-5.3c0-4.2-3.4-7.6-7.6-7.6h-11v27h11.8c4.3,0,7.8-3.5,7.8-7.9
			C303.9,774.5,302.7,772.2,300.6,770.8z M296.1,781.1h-7.8v-7.9h7.8c2.1,0,3.9,1.8,3.9,4C300,779.3,298.2,781.1,296.1,781.1z
			 M295.3,769.2h-7v-7.5h7c2,0,3.6,1.7,3.6,3.7S297.3,769.2,295.3,769.2z"/>
		<rect x="331.7" y="757.9" class="st3" width="4" height="27"/>
		<path class="st3" d="M377.5,757.5c-7.8,0-13.9,6.1-13.9,13.9c0,7.8,6.1,13.9,13.9,13.9c7.8,0,13.9-6.1,13.9-13.9
			C391.4,763.6,385.3,757.5,377.5,757.5z M377.5,781.4c-5.6,0-9.9-4.4-9.9-10c0-5.6,4.4-10,9.9-10c5.6,0,9.9,4.4,9.9,10
			C387.4,777,383,781.4,377.5,781.4z"/>
		<polygon class="st3" points="431.6,771.7 423.3,757.9 419.3,757.9 419.3,784.9 423.3,784.9 423.3,765.5 430.9,778.1 432.4,778.1 
			439.9,765.5 439.9,784.9 443.9,784.9 443.9,757.9 439.9,757.9 		"/>
		<path class="st3" d="M480.7,757.9l-10.5,27h4.2l2.4-6.3h11.1l2.4,6.3h4.2l-10.5-27H480.7z M478.4,774.7l4-10.5l4,10.5H478.4z"/>
		<polygon class="st3" points="516.8,761.8 524.7,761.8 524.7,784.9 528.7,784.9 528.7,761.8 536.5,761.8 536.5,757.9 516.8,757.9 
					"/>
		<polygon class="st3" points="567.5,773.3 578.9,773.3 578.9,769.4 567.5,769.4 567.5,761.8 579.8,761.8 579.8,757.9 563.5,757.9 
			563.5,784.9 580,784.9 580,781.1 567.5,781.1 		"/>
		<path class="st3" d="M627.1,766.3c0-4.6-3.8-8.4-8.4-8.4h-10.9v27h4v-10.2h6.2l6,10.2h4.6l-6.5-11
			C625.1,772.6,627.1,769.7,627.1,766.3z M611.7,761.8h6.9c2.4,0,4.4,2,4.4,4.5c0,2.5-2,4.5-4.4,4.5h-6.9V761.8z"/>
		<rect x="654.8" y="757.9" class="st3" width="4" height="27"/>
		<path class="st3" d="M695.6,757.9l-10.5,27h4.2l2.4-6.3h11.1l2.4,6.3h4.2l-10.5-27H695.6z M693.2,774.7l4-10.5l4,10.5H693.2z"/>
		<polygon class="st3" points="739.7,757.9 735.7,757.9 735.7,784.9 751.5,784.9 751.5,781.1 739.7,781.1 		"/>
		<path class="st3" d="M786.7,769.3c-3.8-1.3-5.4-2-5.4-4.1c0-2.3,1.8-3.8,4.6-3.8c3.3,0,4.8,2,5.4,3.7l0.4,1.1l3.5-1.9l-0.4-0.9
			c-1.5-3.7-4.9-5.9-9-5.9c-5,0-8.6,3.3-8.6,7.7c0,5.1,4.3,6.5,8.5,7.8l0.1,0c3.9,1.2,5.7,2.2,5.7,4.3c0,2.5-1.9,3.9-5.2,3.9
			c-3.4,0-5.7-1.5-6.5-4.3l-0.4-1.3l-3.5,2.1l0.3,0.8c1.3,4.1,5.2,6.6,10.1,6.6c5.5,0,9.2-3.2,9.2-7.9
			C795.7,772.3,790.9,770.7,786.7,769.3z"/>
	</g>
	<g>
		<path class="st3" d="M156.2,567.3h-35.3c-2.4,0-4.3-1.9-4.3-4.3v-45.3c0-2.4,1.9-4.3,4.3-4.3h134.9c2.4,0,4.3,1.9,4.3,4.3V563
			c0,2.4-1.9,4.3-4.3,4.3h-35.3l0,147.2c0,2.4-1.9,4.3-4.3,4.3h-55.7c-2.4,0-4.3-1.9-4.3-4.3L156.2,567.3z"/>
		<path class="st3" d="M278.5,513.4h55.7c2.4,0,4.3,1.9,4.3,4.3l0,65.6h39.4l0-65.6c0-2.4,1.9-4.3,4.3-4.3H438
			c2.4,0,4.3,1.9,4.3,4.3v196.7c0,2.4-1.9,4.3-4.3,4.3h-55.7c-2.4,0-4.3-1.9-4.3-4.3l0-71.7h-39.4l0,71.7c0,2.4-1.9,4.3-4.3,4.3
			h-55.7c-2.4,0-4.3-1.9-4.3-4.3V517.7C274.2,515.4,276.1,513.4,278.5,513.4z"/>
		<path class="st3" d="M527.8,513.4h43.3c1.8,0,3.4,1.1,4,2.8L649.8,713c1.1,2.8-1,5.8-4,5.8h-55.4c-1.8,0-3.4-1.1-4-2.8l-5.7-15.7
			h-62.2l-5.7,15.7c-0.6,1.7-2.2,2.8-4,2.8h-55.4c-3,0-5.1-3-4-5.8l74.6-196.7C524.4,514.5,526,513.4,527.8,513.4z"/>
		<path class="st3" d="M660.9,513.4h47.4c1.4,0,2.7,0.7,3.5,1.8l43.9,61.3c3.6,5,11.5,2.5,11.5-3.7v-55.1c0-2.4,1.9-4.3,4.3-4.3
			h55.7c2.4,0,4.3,1.9,4.3,4.3v196.7c0,2.4-1.9,4.3-4.3,4.3h-47.7c-1.4,0-2.7-0.7-3.5-1.8L729.6,652c-2.7-3.8-8.6-1.9-8.6,2.8v59.7
			c0,2.4-1.9,4.3-4.3,4.3h-55.7c-2.4,0-4.3-1.9-4.3-4.3V517.7C656.6,515.4,658.5,513.4,660.9,513.4z"/>
	</g>
	<g>
		<path class="st3" d="M120.9,299.7h44.2c1.4,0,2.8,0.7,3.6,1.9l48.8,72.1l48.8-72.1c0.8-1.2,2.1-1.9,3.6-1.9h44.2
			c2.4,0,4.3,1.9,4.3,4.3V488c0,2.4-1.9,4.3-4.3,4.3h-52.9c-2.4,0-4.3-1.9-4.3-4.3v-65l-35.9,52.6c-1.7,2.5-5.4,2.5-7.1,0L178.2,423
			v65c0,2.4-1.9,4.3-4.3,4.3h-52.9c-2.4,0-4.3-1.9-4.3-4.3V304C116.6,301.6,118.6,299.7,120.9,299.7z"/>
		<path class="st3" d="M332.8,396.2c0-13.9,2.6-27,7.9-39.3c5.3-12.3,12.5-23.1,21.7-32.2c9.1-9.1,19.9-16.4,32.2-21.7
			c12.3-5.3,25.4-7.9,39.3-7.9c13.9,0,27,2.6,39.3,7.9c12.3,5.3,23.1,12.5,32.2,21.7c9.1,9.2,16.4,19.9,21.7,32.2
			c5.3,12.3,7.9,25.4,7.9,39.3c0,13.9-2.6,27-7.9,39.3s-12.5,23.1-21.7,32.2c-9.2,9.2-19.9,16.4-32.2,21.7s-25.4,7.9-39.3,7.9
			c-13.9,0-27-2.6-39.3-7.9s-23.1-12.5-32.2-21.7c-9.2-9.1-16.4-19.9-21.7-32.2S332.8,410,332.8,396.2z"/>
		<path class="st3" d="M549.2,304c0-2.4,1.9-4.3,4.3-4.3h62.1c12.3,0,23.7,1.6,34.2,4.9c10.5,3.3,19.6,8.1,27.3,14.4
			s13.7,14.2,18.1,23.5s6.5,20.1,6.5,32.2c0,9.6-1.3,17.8-4,24.6c-2.7,6.7-5.7,12.3-8.9,16.8c-3.1,4-6.5,7.5-10.1,10.5
			c-1.6,1.3-2,3.6-1,5.4l30.6,53.9c1.6,2.9-0.4,6.4-3.7,6.4h-62.4c-1.5,0-2.9-0.8-3.7-2.1l-27.6-46.7V488c0,2.4-1.9,4.3-4.3,4.3
			h-52.9c-2.4,0-4.3-1.9-4.3-4.3V304z"/>
		<path class="st3" d="M720.2,299.7h106.9c2.4,0,4.3,1.9,4.3,4.3v41.9c0,2.4-1.9,4.3-4.3,4.3h-49.7v21.4h46.8c2.4,0,4.3,1.9,4.3,4.3
			v39.3c0,2.4-1.9,4.3-4.3,4.3h-46.8v22.2h49.7c2.4,0,4.3,1.9,4.3,4.3V488c0,2.4-1.9,4.3-4.3,4.3H720.2c-2.4,0-4.3-1.9-4.3-4.3V304
			C715.9,301.6,717.8,299.7,720.2,299.7z"/>
	</g>
	<g>
		<path class="st3" d="M855,535.5c-1.4,0-2.5-1.1-2.5-2.5v-35.7c0-7.1,0.9-13.7,2.8-19.7c1.9-6,4.7-11.3,8.3-15.7
			c3.7-4.4,8.2-7.9,13.5-10.4s11.5-3.7,18.5-3.7c5.5,0,10.2,0.8,14.1,2.3c3.9,1.6,7.1,3.3,9.6,5.1c2.3,1.8,4.3,3.7,6,5.8
			c0.8,0.9,2.1,1.2,3.1,0.6l31-17.6c1.7-0.9,3.7,0.3,3.7,2.2v35.9c0,0.9-0.5,1.7-1.2,2.1l-26.9,15.9h25.6c1.4,0,2.5,1.1,2.5,2.5V533
			c0,1.4-1.1,2.5-2.5,2.5H855z"/>
		<path class="st3" d="M852.6,437.7v-61.5c0-1.4,1.1-2.5,2.5-2.5h24.1c1.4,0,2.5,1.1,2.5,2.5v28.6h12.3v-26.9c0-1.4,1.1-2.5,2.5-2.5
			H919c1.4,0,2.5,1.1,2.5,2.5v26.9h12.8v-28.6c0-1.4,1.1-2.5,2.5-2.5h24.1c1.4,0,2.5,1.1,2.5,2.5v61.5c0,1.4-1.1,2.5-2.5,2.5H855
			C853.7,440.2,852.6,439.1,852.6,437.7z"/>
		<path class="st3" d="M852.6,363.7v-61.5c0-1.4,1.1-2.5,2.5-2.5h24.1c1.4,0,2.5,1.1,2.5,2.5v28.6h12.3v-26.9c0-1.4,1.1-2.5,2.5-2.5
			H919c1.4,0,2.5,1.1,2.5,2.5v26.9h12.8v-28.6c0-1.4,1.1-2.5,2.5-2.5h24.1c1.4,0,2.5,1.1,2.5,2.5v61.5c0,1.4-1.1,2.5-2.5,2.5H855
			C853.7,366.1,852.6,365,852.6,363.7z"/>
		<path class="st3" d="M881.6,697.4v19c0,1.3-1,2.3-2.3,2.3h-24.4c-1.3,0-2.3-1-2.3-2.3v-72.8c0-1.3,1-2.3,2.3-2.3h24.4
			c1.3,0,2.3,1,2.3,2.3v19l79.4,0c1.3,0,2.3,1,2.3,2.3v30.1c0,1.3-1,2.3-2.3,2.3L881.6,697.4z"/>
		<path class="st3" d="M852.6,631.5v-30.1c0-1.3,1-2.3,2.3-2.3l35.4,0v-21.3l-35.4,0c-1.3,0-2.3-1-2.3-2.3v-30.1
			c0-1.3,1-2.3,2.3-2.3H961c1.3,0,2.3,1,2.3,2.3v30.1c0,1.3-1,2.3-2.3,2.3l-38.7,0v21.3l38.7,0c1.3,0,2.3,1,2.3,2.3v30.1
			c0,1.3-1,2.3-2.3,2.3H854.9C853.6,633.8,852.6,632.7,852.6,631.5z"/>
	</g>
</g>
</svg>
